<svg id="Ebene_1" data-name="Ebene 1" xmlns="http://www.w3.org/2000/svg" viewBox="0 0 485 454.14"><defs><style>.cls-1,.cls-3{fill:none;stroke:#000;stroke-linecap:round;}.cls-1{stroke-miterlimit:10;stroke-width:13px;}.cls-2{fill:#3730a3;}.cls-3{stroke-linejoin:round;stroke-width:10px;}</style></defs><path class="cls-1" d="M477.32,419.67c12.13-15.3,20.26-118.16,12.84-169-5-34.23-29.71-25.5-38.53-5.83s-15.7,46.62-15.7,46.62L397.39,182.94c-7.85-25.49-43.47-32-41.39.73.11,4.15,5.64,15.42,7.85,22.58,16.42,53.17,30,91.05,30,91.05L351,168.37c-7.83-21.39-43.51-17-35.68,12.39l40,127.46L321.75,201.86c-11.42-34.22-43.53-19.65-37.82,9.49l34.25,112.17S293.92,242.67,286.78,223c-11.41-7.28-28.54-5.82-25,26.22,0,0,31.55,146.58,65.65,184.29C344.59,452.44,375.27,459,375.27,459" transform="translate(-14.5 -29.21)"/><path class="cls-1" d="M419.16,333.35c-19.27,25.5-20.7,48.08,3.92,95.79" transform="translate(-14.5 -29.21)"/><path class="cls-1" d="M36.91,437.53c-12.31-15.29-20.56-118.1-13-168.9C28.94,234.42,54,243.15,63,262.81S78.89,309.4,78.89,309.4L118,200.93c8-25.48,44.09-32,42,.72-.1,4.15-5.72,15.42-8,22.57-16.65,53.15-30.4,91-30.4,91L165,186.37c7.94-21.38,44.14-17,36.19,12.37l-40.53,127.4,34-106.3c11.58-34.2,44.15-19.64,38.36,9.48L198.33,341.43S222.94,260.62,230.18,241c11.58-7.28,28.95-5.83,25.33,26.21,0,0-32,146.49-66.59,184.18-17.38,18.93-48.5,25.48-48.5,25.48" transform="translate(-14.5 -29.21)"/><path class="cls-1" d="M95.9,351.26c19.55,25.48,21,48.05-4,95.74" transform="translate(-14.5 -29.21)"/><path class="cls-2" d="M226.8,38.83a3,3,0,0,0-5.19,0c-10.73,18.09-48.71,87.74,2.6,87.74S237.54,56.92,226.8,38.83Z" transform="translate(-14.5 -29.21)"/><path class="cls-2" d="M272.71,128.16a2.77,2.77,0,0,0-4.78,0c-7.85,12.78-30.51,53.84,2.39,53.84S280.56,140.94,272.71,128.16Z" transform="translate(-14.5 -29.21)"/><path class="cls-2" d="M231.91,170.91a3,3,0,0,0-5.23,0c-7.62,14-27.45,55.09,2.62,55.09S239.54,184.91,231.91,170.91Z" transform="translate(-14.5 -29.21)"/><path class="cls-3" d="M236.64,34.21s-48.86,77.29,0,77.29S236.64,34.21,236.64,34.21Z" transform="translate(-14.5 -29.21)"/><path class="cls-3" d="M281.66,121.56s-30,47.5,0,47.5S281.66,121.56,281.66,121.56Z" transform="translate(-14.5 -29.21)"/><path class="cls-3" d="M240,166.66s-30,47.5,0,47.5S240,166.66,240,166.66Z" transform="translate(-14.5 -29.21)"/></svg>