<svg id="Ebene_3" data-name="Ebene 3" xmlns="http://www.w3.org/2000/svg" viewBox="0 0 500.11 324.38"><defs><style>.cls-1{fill:#3730a3;}.cls-2,.cls-3,.cls-4,.cls-5{fill:none;stroke:#000;stroke-linecap:round;stroke-miterlimit:10;}.cls-2{stroke-width:13px;}.cls-3,.cls-4{stroke-width:6px;}.cls-4{stroke-dasharray:12.64 12.64;}.cls-5{stroke-width:10px;}</style></defs><path class="cls-1" d="M214,219c-26,18-114,53-128,68s-1.93,85.17,6,98,42.76,63.09,86.61,68.05c49.67,5.62,94.54,7.26,136.32-.11C377,442,392,395.77,398,382c10-23,11.35-98.33,0-104-22-11-84-50-109-63C270.92,205.6,239,205,214,219Z" transform="translate(-6 -133.5)"/><path class="cls-2" d="M217.71,202.37c-24.19,10.56-105.7,49-114.51,61.21s-7.93,85.22,0,97.7,42.47,61,86.32,65.82c49.68,5.46,94.32,5.64,136.32-.11,43.71-6,79.06-53,86.32-65.81s6.84-87.31,0-97.7S321.78,213,297.65,202.27C279.11,194,239.35,192.92,217.71,202.37Z" transform="translate(-6 -133.5)"/><path class="cls-2" d="M313.91,244C299.79,238.88,286,221,267.47,221l-22.34.27c-18.57,0-32.31,17.89-46.44,23.05" transform="translate(-6 -133.5)"/><line class="cls-3" x1="250.28" y1="106.19" x2="250.31" y2="112.19"/><line class="cls-4" x1="250.38" y1="124.83" x2="251.12" y2="270.18"/><line class="cls-3" x1="251.16" y1="276.5" x2="251.19" y2="282.5"/><path class="cls-2" d="M124.45,161.74c34.32,20.59,66.68,6.86,83.35-21.57" transform="translate(-6 -133.5)"/><path class="cls-2" d="M390.31,161.57C356,182.16,323.63,168.43,307,140" transform="translate(-6 -133.5)"/><path class="cls-2" d="M429.22,185.39c55.89-64.72,101,36.28,44.12,72.55-10.27,6.55-31.38,13.73-44.12,6.9" transform="translate(-6 -133.5)"/><line class="cls-5" x1="436.95" y1="79.34" x2="458.42" y2="56.35"/><path class="cls-5" d="M387.54,273.14c22.56-19.61,8.83-134.33,52.75-98.6" transform="translate(-6 -133.5)"/><path class="cls-5" d="M393.43,355.51c38.28-28,66.8-59.83,79.91-97.57" transform="translate(-6 -133.5)"/><path class="cls-2" d="M82.88,185.22C27,120.51-18.11,221.5,38.76,257.78c10.27,6.55,31.38,13.73,44.12,6.89" transform="translate(-6 -133.5)"/><line class="cls-5" x1="63.16" y1="79.17" x2="41.69" y2="56.18"/><path class="cls-5" d="M124.56,273c-22.56-19.61-8.83-134.33-52.75-98.61" transform="translate(-6 -133.5)"/><path class="cls-5" d="M118.67,355.34c-38.28-28-66.8-59.83-79.91-97.56" transform="translate(-6 -133.5)"/></svg>