<svg id="Ebene_6" data-name="Ebene 6" xmlns="http://www.w3.org/2000/svg" viewBox="0 0 424.17 477.12"><defs><style>.cls-1{fill:#3730a3;}.cls-2,.cls-3,.cls-4,.cls-5{fill:none;stroke:#000;stroke-linecap:round;stroke-linejoin:round;}.cls-2{stroke-width:13px;}.cls-3{stroke-width:8px;}.cls-4{stroke-width:11px;}.cls-5{stroke-width:10px;}</style></defs><path class="cls-1" d="M92.21,321l73.16,59.26c4.73,3.84,11.15,3.77,14.32-.14L311.81,217c3.17-3.92,1.91-10.21-2.83-14.05l-73.16-59.26c-4.74-3.83-11.15-3.77-14.32.15L89.38,306.94C86.2,310.85,87.47,317.14,92.21,321Z" transform="translate(-24.68 -19.14)"/><path class="cls-2" d="M379.44,489.69l-59.76.07a3.34,3.34,0,0,1-3.15-3.51V368.32c0-22.19,16.12-40.17,36-40.17h1V296.63c0-3.32-2.41-6-5.38-6h-7.12a5.13,5.13,0,0,1-4.83-5.39V272.6a5.14,5.14,0,0,1,4.82-5.4l38.39-.1h0l38.37-.1a5.13,5.13,0,0,1,4.84,5.39V285a5.13,5.13,0,0,1-4.83,5.39h-7.11c-3,0-5.39,2.69-5.39,6v31.52h1c19.88,0,36,18,36,40.16V486a3.36,3.36,0,0,1-3.14,3.51l-59.77.15Z" transform="translate(-24.68 -19.14)"/><line class="cls-3" x1="339.73" y1="270.81" x2="370.32" y2="270.81"/><line class="cls-4" x1="291.85" y1="359.53" x2="417.67" y2="359.53"/><line class="cls-4" x1="417.67" y1="429.4" x2="291.85" y2="429.4"/><path class="cls-2" d="M100.33,342.56l73.16,59.26c4.73,3.84,12.11,2.59,16.46-2.79l181.44-224c4.36-5.38,4.05-12.85-.69-16.69L297.55,99.1c-4.74-3.83-12.12-2.59-16.47,2.79l-181.44,224C95.28,331.25,95.59,338.72,100.33,342.56Z" transform="translate(-24.68 -19.14)"/><line class="cls-5" x1="238.07" y1="129.21" x2="305.28" y2="183.66"/><line class="cls-2" x1="310.61" y1="103.7" x2="389.34" y2="6.5"/><polygon class="cls-2" points="89.11 359.16 49.1 408.56 21.9 386.53 6.5 405.54 82.65 467.23 98.05 448.22 69.3 424.93 109.31 375.53 89.11 359.16"/><polyline class="cls-5" points="151.5 341.72 129.59 323.98 251.67 173.28 273.57 191.03"/><line class="cls-5" x1="231.65" y1="221.16" x2="240.12" y2="228.02"/><line class="cls-5" x1="201.33" y1="258.22" x2="209.8" y2="265.08"/><line class="cls-5" x1="172.04" y1="294.38" x2="180.51" y2="301.24"/><path class="cls-2" d="M122.19,384.52l71,57.67L205,427.69,176,404.25l-84.3-68.66-29-23.53L50.89,326.62l71.3,57.9" transform="translate(-24.68 -19.14)"/><circle class="cls-5" cx="354.52" cy="394.44" r="22.08"/></svg>