<svg id="Ebene_4" data-name="Ebene 4" xmlns="http://www.w3.org/2000/svg" viewBox="0 0 235.6 439.37"><defs><style>.cls-1,.cls-2,.cls-3{fill:none;stroke:#000;stroke-linecap:round;}.cls-1,.cls-2{stroke-miterlimit:10;}.cls-1,.cls-3{stroke-width:13px;}.cls-2{stroke-width:8px;}.cls-3{stroke-linejoin:round;}.cls-4{fill:#9d174d;}</style></defs><path class="cls-1" d="M167.5,458.94V222.22A67.52,67.52,0,0,1,235,154.69h43.63a67.52,67.52,0,0,1,67.53,67.53V458.94a15.56,15.56,0,0,1-15.56,15.56H183.06A15.55,15.55,0,0,1,167.5,458.94Z" transform="translate(-117.08 -41.63)"/><rect class="cls-1" x="110.64" y="62.49" width="62.28" height="49.57" rx="9.4"/><line class="cls-2" x1="125.92" y1="74.87" x2="125.92" y2="113.07"/><line class="cls-2" x1="141.92" y1="74.87" x2="141.92" y2="113.07"/><line class="cls-2" x1="157.92" y1="74.86" x2="157.92" y2="113.05"/><path class="cls-3" d="M243,55.41a7.28,7.28,0,0,1,7.28-7.28h17.44A7.28,7.28,0,0,1,275,55.41v48.71" transform="translate(-117.08 -41.63)"/><line class="cls-3" x1="125.92" y1="62.49" x2="125.92" y2="41.49"/><path class="cls-3" d="M243.5,61.75s-49.25-.42-68,3.75c-27,6-46,39-46,39,8.61,3.51,17.64,3.23,27,0,0,0,8.72-13.28,22-19,15.44-6.65,65-2,65-2C259.5,81.5,259.5,64.5,243.5,61.75Z" transform="translate(-117.08 -41.63)"/><line class="cls-3" x1="50.42" y1="209.37" x2="226.32" y2="209.37"/><path class="cls-4" d="M282.11,335.1a5.91,5.91,0,0,0,5.89-5.93V314.08c0-3.27.36-10.93-2.89-10.93H263.52c-.42.06-.74,0-.76-.48V278.93a5.92,5.92,0,0,0-5.89-5.93h-19a5.91,5.91,0,0,0-5.89,5.93l0,23.74-.19.05H210.23a5.92,5.92,0,0,0-5.89,5.93v21.09a5.92,5.92,0,0,0,5.89,5.94h22.59l.76.48v18.73a5.92,5.92,0,0,0,5.89,5.94h18a5.91,5.91,0,0,0,5.89-5.94V336a.83.83,0,0,1,.83-.83Z" transform="translate(-117.08 -41.63)"/><line class="cls-3" x1="50.42" y1="349.62" x2="229.1" y2="349.62"/><path class="cls-3" d="M246.5,300.5V276.09H272V300.5m-25.66,0H221.93V326h24.41m.65.41v24.41h25.5V326.45m.17,0h24.4v-25.5h-24.4" transform="translate(-117.08 -41.63)"/><polyline class="cls-3" points="38.27 124.59 22.66 87.37 7.18 124.59"/><path class="cls-1" d="M124.26,166.22c-6.64,30.43,37.59,31.32,31.08,0" transform="translate(-117.08 -41.63)"/></svg>