<svg id="Ebene_2" data-name="Ebene 2" xmlns="http://www.w3.org/2000/svg" viewBox="0 0 494 328.15"><defs><style>.cls-1,.cls-2,.cls-3,.cls-4,.cls-5,.cls-6,.cls-7{fill:none;stroke-linecap:round;}.cls-1,.cls-2,.cls-3,.cls-6,.cls-7{stroke:#000;}.cls-1,.cls-5,.cls-7{stroke-linejoin:round;}.cls-1,.cls-3,.cls-4{stroke-width:13px;}.cls-2,.cls-3,.cls-4,.cls-6{stroke-miterlimit:10;}.cls-2,.cls-7{stroke-width:10px;}.cls-4,.cls-5{stroke:#9d174d;}.cls-5{stroke-width:17px;}.cls-6{stroke-width:9px;}</style></defs><path class="cls-1" d="M15.5,418.5h51c-5-20-13-72-13-126-14-44-2-94-4-81-5,27-5,48,4,81-2,13-22,10-25,2-7.34-19.58-17-60,6-113,2.84-6.55,16.84-8.42,24-10,3.43-.76,7-2,7-14-21-7-16-56.18,21-54,34,2,34,52,12,55v13c2.9.8,16,4,16,13-2,15-7.25,62-5,107,2,40,4,89,16,114,4.29,8.95,5,11,11,13h28" transform="translate(-9 -96.93)"/><path class="cls-2" d="M99,419c-5-12.31-16.38-39.81-16-119" transform="translate(-9 -96.93)"/><path class="cls-3" d="M233,417.5" transform="translate(-9 -96.93)"/><path class="cls-3" d="M184.67,417.5" transform="translate(-9 -96.93)"/><path class="cls-3" d="M340.5,418.5" transform="translate(-9 -96.93)"/><line class="cls-3" x1="229.1" y1="321.65" x2="263" y2="321.65"/><line class="cls-3" x1="173.08" y1="321.57" x2="206.98" y2="321.57"/><line class="cls-3" x1="284.08" y1="321.65" x2="317.98" y2="321.65"/><line class="cls-4" x1="135.5" y1="165.59" x2="344.62" y2="165.59"/><polyline class="cls-5" points="157.5 192.57 128.21 162.58 128.21 162.58 156.26 135.83"/><polyline class="cls-5" points="321.5 192.57 352.46 161.21 353.46 159.21 334.5 137.57"/><line class="cls-3" x1="132.1" y1="153.57" x2="360.32" y2="153.57"/><path class="cls-6" d="M167.7,218.29" transform="translate(-9 -96.93)"/><polyline class="cls-1" points="331.5 188.57 365 154.15 327.76 118.85"/><path class="cls-1" d="M496.5,418.5h-51c5-20,13-72,13-126,14-44,2-94,4-81,5,27,5,48-4,81,2,13,22,10,25,2,7.34-19.58,17-60-6-113-2.84-6.55-16.84-8.42-24-10-3.43-.76-7-2-7-14,21-7,16-56.18-21-54-34,2-34,52-12,55v13c-2.9.8-16,4-16,13,2,15,7.25,62,5,107-2,40-4,89-16,114-4.29,8.95-5,11-11,13h-28" transform="translate(-9 -96.93)"/><path class="cls-2" d="M413,419c5-12.31,16.38-39.81,16-119" transform="translate(-9 -96.93)"/><polyline class="cls-1" points="161.67 188.08 128.17 153.66 165.41 118.36"/><path class="cls-7" d="M213,189c0-17,39.26-14.22,25,8-5.17,8.06-25,29-25,29h30" transform="translate(-9 -96.93)"/><path class="cls-7" d="M262,226V205.65c0-9.2,15.2-9.2,15.08,0-.08,5.59,0,20.35,0,20.35M292,226V205.65c0-9.17-15-8.41-14.92,0" transform="translate(-9 -96.93)"/></svg>