<svg id="Ebene_5" data-name="Ebene 5" xmlns="http://www.w3.org/2000/svg" viewBox="0 0 392.21 448.51"><defs><style>.cls-1,.cls-3,.cls-4{fill:none;stroke:#000;stroke-linecap:round;}.cls-1{stroke-miterlimit:10;}.cls-1,.cls-3{stroke-width:13px;}.cls-2{fill:#9d174d;}.cls-3,.cls-4{stroke-linejoin:round;}.cls-4{stroke-width:8px;}</style></defs><path class="cls-1" d="M116,286V461.47a9.85,9.85,0,0,0,9.65,10H400.35a9.85,9.85,0,0,0,9.65-10V286" transform="translate(-69.29 -29.5)"/><path class="cls-2" d="M258.05,296.71c13.75-2.75,18.73,2.79,27.92,7.91l.23.14c12.9,9.15,11.86,54.91,8.9,66.69s-5,16.95-12.34,16.07h-.26a4,4,0,0,0-4,4.05V443.8c0,9.78-13.82,13-18.79,5.88a2.11,2.11,0,0,0-1.85-.9l-.44,0a2.1,2.1,0,0,0-1.56.84c-5.12,7.09-19.31,4.05-19.31-5.72L236,391.83a2.94,2.94,0,0,0-2.94-2.83h0c-7.41.95-9-5.29-12-17.29-2.93-11.71-5-56.88,7.53-66.65a2,2,0,0,1,1-.41c10.57-1.19,16-7.94,28.42-7.94" transform="translate(-69.29 -29.5)"/><path class="cls-2" d="M280.05,274.21c0,11.88-7.18,21.79-19.05,21.79s-23.95-9.91-23.95-21.79a21.5,21.5,0,0,1,43,0Z" transform="translate(-69.29 -29.5)"/><path class="cls-3" d="M450,267.71a18,18,0,0,1-27.23.41L268.3,94h0L108.61,268.08a18,18,0,0,1-25.75.74l-1.67-1.62a17.73,17.73,0,0,1-.8-24.66L267.27,36h0L450.54,243.48a17.72,17.72,0,0,1,.33,23.13Z" transform="translate(-69.29 -29.5)"/><path class="cls-1" d="M226.5,459.51" transform="translate(-69.29 -29.5)"/><path class="cls-1" d="M150.34,459.51" transform="translate(-69.29 -29.5)"/><path class="cls-4" d="M265.15,379.75v63.46c-.46,13.79-20.61,11.79-20.61,0V335M266,296c-12.63,0-17,7-28,8-13,9-12,55.15-9,67s5,14.06,12.45,13.1m24.42-4.47v63.46c.46,13.79,20.62,11.79,20.62,0V334.88M266,296c12.65,0,17,7,28,8,13,9,12,55,9,66.77s-5.06,14-12.48,13.06" transform="translate(-69.29 -29.5)"/><circle class="cls-4" cx="196.21" cy="245" r="21.5"/><polygon class="cls-4" points="84.05 382.52 90.48 423.32 120.03 423.32 127.59 382.52 84.05 382.52"/><line class="cls-4" x1="95.71" y1="394.5" x2="115.71" y2="394.5"/><path class="cls-4" d="M170,408c0-1.39,4-39.74-4-46-20.6-16.14-33.66-64.35-18-70,17.05-6.15,22,28.34,23,58" transform="translate(-69.29 -29.5)"/><path class="cls-4" d="M183.57,402c-.93-22.12-3.73-51,7-57.59C206,335,220,275,199,275c-15,0-19,39-11,57" transform="translate(-69.29 -29.5)"/><line class="cls-4" x1="253.71" y1="347.5" x2="321.04" y2="347.5"/><line class="cls-4" x1="262.71" y1="358.5" x2="262.71" y2="424.2"/><line class="cls-4" x1="312.71" y1="358.5" x2="312.71" y2="424.32"/><line class="cls-4" x1="273.05" y1="358.5" x2="301.92" y2="358.5"/></svg>